<svg width="102" height="25" viewBox="0 0 102 25" fill="none" xmlns="http://www.w3.org/2000/svg">
<path d="M71.7907 11.8605C71.7907 16.2016 71.7907 20.5039 71.7907 25C70.5402 25 69.4068 25 68.1562 25C68.1562 16.8992 68.1562 8.83721 68.1562 0.11628C72.3379 5.81395 76.2068 11.0853 80.2712 16.6279C84.3356 11.0853 88.2436 5.73643 92.4252 0C92.4252 8.60465 92.4252 16.7054 92.4252 25C91.1746 25 90.0022 25 88.5563 25C88.5563 20.5814 88.5563 16.1628 88.5563 11.7442C88.439 11.7054 88.2827 11.6667 88.1654 11.6279C85.6252 15.2326 83.085 18.7985 80.2712 22.7519C77.5356 18.9923 74.8781 15.3488 72.2206 11.7442C72.0252 11.7829 71.908 11.8217 71.7907 11.8605Z" fill="#162637"/>
<path d="M32.0846 0.000202049C39.0409 -0.0385576 44.6294 5.50408 44.6685 12.4421C44.6685 19.1087 39.08 24.6126 32.28 24.6514C25.3237 24.6901 19.7743 19.3025 19.7352 12.4421C19.657 5.62036 25.2065 0.0777214 32.0846 0.000202049ZM40.9168 12.4421C40.9559 7.55834 37.0088 3.64361 32.1237 3.60485C27.5122 3.60485 23.526 7.55834 23.4869 12.2095C23.4478 17.0932 27.395 21.1242 32.2019 21.1242C37.0088 21.0855 40.8777 17.2095 40.9168 12.4421Z" fill="#162637"/>
<path d="M1.25054 0H4.18157V3.37209H18.2896C14.108 9.6124 10.1218 15.5426 5.94019 21.7829H18.4069V24.8837H0.078125C4.22065 18.6047 8.20686 12.4806 12.4276 6.04651C9.77008 6.04651 5.1195 6.04651 5.1195 6.04651H3.82985C2.38387 6.04651 1.25054 4.88372 1.25054 3.48837V2.17054C1.25054 2.17054 1.25054 0.813954 1.25054 0Z" fill="#162637"/>
<path d="M48.9278 0C50.1392 0 51.2335 0 52.5232 0C52.5232 7.09302 52.5232 14.1473 52.5232 21.4341C56.6266 21.4341 60.5346 21.4341 64.5599 21.4341C64.5599 22.7132 64.5599 23.7597 64.5599 24.9225C59.3622 24.9225 54.2036 24.9225 48.8887 24.9225C48.9278 16.6667 48.9278 8.44961 48.9278 0Z" fill="#162637"/>
<path d="M102 24.9225C100.788 24.9225 99.772 24.9225 98.5605 24.9225C98.5605 16.5891 98.5605 8.33333 98.5605 0C99.733 0 100.788 0 102 0C102 8.29457 102 16.5116 102 24.9225Z" fill="#162637"/>
<path d="M2.54023 12.8356C3.94316 12.8356 5.08046 11.7077 5.08046 10.3163C5.08046 8.92484 3.94316 7.79688 2.54023 7.79688C1.1373 7.79688 0 8.92484 0 10.3163C0 11.7077 1.1373 12.8356 2.54023 12.8356Z" fill="#162637"/>
</svg>
